<?xml version="1.0" encoding="UTF-8"?>
<!DOCTYPE svg PUBLIC "-//W3C//DTD SVG 1.1//EN" "http://www.w3.org/Graphics/SVG/1.1/DTD/svg11.dtd">
<!-- Creator: CorelDRAW -->
<svg xmlns="http://www.w3.org/2000/svg" xml:space="preserve" width="35.9878mm" height="35.9878mm" version="1.1" style="shape-rendering:geometricPrecision; text-rendering:geometricPrecision; image-rendering:optimizeQuality; fill-rule:evenodd; clip-rule:evenodd"
viewBox="0 0 613.43 613.43"
 xmlns:xlink="http://www.w3.org/1999/xlink"
 xmlns:xodm="http://www.corel.com/coreldraw/odm/2003">
 <defs>
  <style type="text/css">
   <![CDATA[
    .fil2 {fill:#F4F4F9}
    .fil0 {fill:red}
    .fil1 {fill:white;fill-rule:nonzero}
   ]]>
  </style>
 </defs>
 <g id="Layer_x0020_1">
  <metadata id="CorelCorpID_0Corel-Layer"/>
  <rect class="fil0" width="613.43" height="613.43"/>
  <path class="fil1" d="M312.45 309.91c0,1.99 -1.62,3.61 -3.61,3.61 -1.99,0 -3.61,-1.62 -3.61,-3.61l0 -73.96c0,-1.99 1.62,-3.61 3.61,-3.61 1.99,0 3.61,1.62 3.61,3.61l0 73.96z"/>
  <path class="fil1" d="M379.58 184.68c1.73,-1 3.93,-0.4 4.93,1.32 1,1.73 0.4,3.93 -1.32,4.93l-64.05 36.98c-1.73,1 -3.93,0.4 -4.93,-1.32 -1,-1.73 -0.41,-3.93 1.32,-4.93l64.05 -36.98z"/>
  <path class="fil1" d="M234.43 190.97c-1.73,-1 -2.32,-3.2 -1.32,-4.93 1,-1.73 3.2,-2.32 4.93,-1.32l64.05 36.98c1.73,1 2.32,3.2 1.32,4.93 -1,1.73 -3.2,2.32 -4.93,1.32l-64.05 -36.98z"/>
  <path class="fil1" d="M379.58 287.4c1.73,-0.91 3.93,-0.37 4.93,1.2 1,1.57 0.4,3.58 -1.32,4.49l-64.05 33.69c-1.73,0.91 -3.93,0.37 -4.93,-1.2 -1,-1.57 -0.41,-3.58 1.32,-4.49l64.05 -33.69z"/>
  <path class="fil1" d="M234.43 293.13c-1.73,-0.91 -2.32,-2.92 -1.32,-4.49 1,-1.57 3.2,-2.11 4.93,-1.2l64.05 33.69c1.73,0.91 2.32,2.92 1.32,4.49 -1,1.57 -3.2,2.11 -4.93,1.2l-64.05 -33.69z"/>
  <path class="fil1" d="M402.05 269.84c0,1.91 -1.62,3.45 -3.61,3.45 -1.99,0 -3.61,-1.55 -3.61,-3.45l0 -70.76c0,-1.91 1.62,-3.45 3.61,-3.45 1.99,0 3.61,1.55 3.61,3.45l0 70.76z"/>
  <path class="fil1" d="M222.8 269.84c0,1.91 -1.62,3.45 -3.61,3.45 -1.99,0 -3.61,-1.55 -3.61,-3.45l0 -70.76c0,-1.91 1.62,-3.45 3.61,-3.45 1.99,0 3.61,1.55 3.61,3.45l0 70.76z"/>
  <path class="fil1" d="M379.58 175.01c1.73,0.91 3.93,0.37 4.93,-1.2 1,-1.57 0.4,-3.58 -1.32,-4.49l-64.05 -33.69c-1.73,-0.91 -3.93,-0.37 -4.93,1.2 -1,1.57 -0.41,3.58 1.32,4.49l64.05 33.69z"/>
  <path class="fil1" d="M234.43 169.29c-1.73,0.91 -2.32,2.92 -1.32,4.49 1,1.57 3.2,2.11 4.93,1.2l64.05 -33.69c1.73,-0.91 2.32,-2.92 1.32,-4.49 -1,-1.57 -3.2,-2.11 -4.93,-1.2l-64.05 33.69z"/>
  <path class="fil2" d="M349.09 422.57c0.01,-6.62 -2.56,-11.67 -6.01,-14.84 -4.46,-4.08 -6.85,-2.71 -13.13,-5.37 0.1,-2.33 0.19,-4.65 0.29,-6.98 24.76,0.47 26.78,19.42 26.78,41.61 0.01,22.94 -2.68,40.49 -27.05,40.02 0.06,-2.28 0.13,-4.55 0.2,-6.83 10.01,-3.73 15.74,-2.77 18.27,-14.6 1.46,-6.83 0.64,-25.03 0.65,-33.03zm100.8 1.59l-0.14 0.91 0.17 0 0 0.06c1.21,0.04 2.13,0.02 2.88,-0.06l3.92 -0.01c1.47,-8.52 6,-16.77 14.3,-20.23 2.68,-1.06 5.57,-1.64 8.48,-1.68l0.18 -0 0.18 0c2.9,0.04 5.79,0.62 8.48,1.68 8.28,3.45 12.85,11.71 14.3,20.23l3.92 0.01c0.75,0.09 1.67,0.1 2.88,0.06l0 -0.06 0.17 0 -0.14 -0.91c0.46,-16.45 -12.63,-28.43 -28.77,-29l-0.65 -0.01 -0.04 -0 -0.64 0 -0.04 0 -0.65 0.01c-16.14,0.57 -29.22,12.55 -28.77,29zm-387.93 -17.94c-7.46,1.1 -15.99,-0.41 -20.42,0.6 -4.37,1 -3.29,7.33 -0.01,7.63 11.64,1.04 22.62,-1.4 30.77,5.41 8.93,7.46 15.5,45.67 -11.52,49.25 -10.91,1.45 -23.64,-0.09 -34.64,1.37 -0.05,2.13 -0.11,4.25 -0.16,6.38 47.28,5.32 63.98,-3.89 60.75,-44.27 -0.86,-10.75 -7.35,-18.05 -13.31,-20.64 5.76,-7.37 2.5,-3.01 8.31,-10.17 8.46,-10.4 5.5,-28.11 -1.59,-36.16 -10.37,-11.76 -25.37,-9.96 -39.63,-10 -13.81,-0.04 -13.07,-1.03 -14.48,3.44 -2.93,9.31 29.2,-0.43 42.87,7.71 9.29,5.53 12.71,15.98 8.6,26.38 -2.5,6.34 -8.52,12.04 -15.54,13.07zm179.01 69.74c3.73,-0.67 7.02,-6.06 -0.73,-6.59 -53.04,2.26 -53.15,-6.66 -53.24,-56.9 -0.04,-20.9 -1.95,-42.65 21.62,-48.35 4.19,-1.01 7.91,-0.9 12.29,-0.93 7.53,-0.05 22.34,2.68 19.08,-5.79 -2.19,-2.64 -10.03,-1.69 -14.75,-1.68 -13.42,0.02 -26.85,0.17 -36.32,10.31 -11.56,12.37 -10.01,31.68 -9.98,52.21 0.04,20.65 -0.89,40.58 11.61,50.61 12.01,9.64 33.58,11.04 50.42,7.1zm-130.81 -120.21c-9.21,0.11 -8.1,0.92 -8.07,10.51 0.05,15.88 0.09,31.77 0.14,47.65 -0.02,13.96 -1.54,53.43 0.8,63.14 2.42,0.1 4.85,0.21 7.27,0.31 -0.04,-40.54 -0.09,-81.08 -0.13,-121.61zm145.53 0.01l-0.48 76.91c0.03,13.65 -0.63,23.35 5.86,33.44 2.87,4.47 4.86,6.01 10.12,8.69 2.92,1.49 11.02,3.44 15.01,-0.63 3.69,-7.2 -14.06,-2.66 -19.52,-14.83 -4.3,-9.57 -2.6,-77.28 -2.36,-94.58 0.11,-7.94 0.34,-9.6 -8.62,-9.01zm278.23 48.52c0.38,-2.45 2.26,-1.86 5.84,-2.11 13.44,0.31 26.87,0.62 40.31,0.93 0.24,3.54 -0.38,6.21 -0.14,9.74 0.19,2.82 0.76,5.73 3.26,5.76 2.45,0.03 4.1,-2.15 4.29,-8.09 0.64,-19.49 0.05,-14.09 -28.86,-15.48 -40.25,-0 -32.21,-3.71 -32.75,39.07 0,5.58 -0.85,38.73 0.52,41.2 2.03,3.67 5.68,2.35 6.92,0 0.2,-23.68 0.41,-47.35 0.61,-71.03zm-84.18 30.49c-1.72,6.71 -1.64,16.43 -0.17,23.48 4.75,22.73 32.69,20.58 54.35,19.3 9.43,-0.56 10.59,-7.91 -2.96,-8.05 -29.25,-0.31 -46.69,5.47 -43.99,-27.35l53.32 0.21 0.15 -7.59 -60.69 0zm-285.43 -17.98c0.02,-32.58 2.52,-62.85 -46.26,-61 0.04,2.05 0.09,4.1 0.13,6.16 5.08,2.37 14.29,1.37 20.28,3.49 21.52,7.63 17.83,30.55 17.85,51.35 0.01,13.97 2.11,31.03 -5.28,41.24 -7.8,10.77 -16.01,11.05 -33.04,11.64 0.05,2.81 0.1,4.76 0.15,7.57 21.56,-1.59 28.95,0.45 39.38,-14.21 8.58,-12.05 6.77,-29.56 6.78,-46.23zm214.06 59.36c3.59,-6.23 1.44,-63.98 1.49,-72.63 12.5,-0.47 25.39,-1.91 34.92,5.59 17.22,13.55 10.32,32.89 11.18,61.19 0.2,6.58 0.46,7.84 6.16,6.11 0.17,-0.34 0.42,-0.75 0.5,-1.01 0.08,-0.26 0.34,-0.73 0.42,-1.07 0.17,-2.33 0.34,-4.67 0.51,-7 0.1,-27.38 4.19,-47.07 -11.09,-61.61 -10.06,-9.56 -34.31,-15.97 -49.82,-7.67 -1.85,10.01 -0.77,29.35 -0.76,40.38 0.01,6.74 0,13.47 0.01,20.21 0,7.1 -0.35,9.42 -0.11,14.28 0.23,4.75 1.9,4.09 6.58,3.23zm-75.68 -53.59c-0.01,-6.62 2.56,-11.67 6.01,-14.84 4.46,-4.08 6.85,-2.71 13.13,-5.37 -0.1,-2.33 -0.19,-4.65 -0.29,-6.98 -24.76,0.47 -26.78,19.42 -26.78,41.61 -0.01,22.94 2.68,40.49 27.05,40.02 -0.06,-2.28 -0.13,-4.55 -0.2,-6.83 -10.01,-3.73 -15.74,-2.77 -18.27,-14.6 -1.46,-6.83 -0.64,-25.03 -0.65,-33.03z"/>
 </g>
</svg>
